<?xml version="1.0" encoding="UTF-8"?>
<svg width="40px" height="40px" viewBox="0 0 40 40" version="1.1" xmlns="http://www.w3.org/2000/svg" xmlns:xlink="http://www.w3.org/1999/xlink">
    <!-- Generator: Sketch 44.1 (41455) - http://www.bohemiancoding.com/sketch -->
    <title>ResetLayout</title>
    <desc>Created with Sketch.</desc>
    <defs>
        <rect id="path-1" x="0" y="0" width="40" height="40"></rect>
    </defs>
    <g id="Setting-3New" stroke="none" stroke-width="1" fill="none" fill-rule="evenodd">
        <g id="UI_SVG" transform="translate(-124.000000, -86.000000)">
            <g id="ResetLayout" transform="translate(124.000000, 86.000000)">
                <g id="Rectangle-7">
                    <use fill="#FFFFFF" fill-rule="evenodd" xlink:href="#path-1"></use>
                    <rect stroke="#CFCFCF" stroke-width="1" x="0.5" y="0.5" width="39" height="39"></rect>
                </g>
                <g id="undo" transform="translate(12.000000, 9.000000)" fill="#727272">
                    <path d="M8,4 L8,0.5 L3,5.5 L8,10.5 L8,6 C11.3,6 14,8.7 14,12 C14,15.3 11.3,18 8,18 C4.7,18 2,15.3 2,12 L0,12 C0,16.4 3.6,20 8,20 C12.4,20 16,16.4 16,12 C16,7.6 12.4,4 8,4 L8,4 Z" id="Shape"></path>
                </g>
            </g>
        </g>
    </g>
</svg>