<?xml version="1.0" encoding="iso-8859-1"?>
<!-- Generator: Adobe Illustrator 19.0.0, SVG Export Plug-In . SVG Version: 6.00 Build 0)  -->
<svg version="1.1" id="Layer_1" xmlns="http://www.w3.org/2000/svg" xmlns:xlink="http://www.w3.org/1999/xlink" x="0px" y="0px"
	 viewBox="0 0 501.987 501.987" style="enable-background:new 0 0 501.987 501.987;" xml:space="preserve">
<g>
	<g>
		<g>
			<path d="M222.019,425.049c-3.182,0-9.252-5.187-15.886-19.803c-2.283-5.03-8.211-7.255-13.239-4.973
				c-5.029,2.283-7.256,8.21-4.973,13.239c0.827,1.823,1.671,3.563,2.528,5.229c-24.647-10.007-46.993-31.594-64.108-62.24
				c3.777,1.194,7.601,2.326,11.472,3.375c0.876,0.238,1.757,0.351,2.623,0.351c4.404,0,8.438-2.932,9.646-7.385
				c1.445-5.331-1.704-10.823-7.034-12.269c-10.024-2.718-19.728-5.963-28.908-9.661c-6.932-17.179-12.109-35.659-15.454-55.136
				c7.331,1.268,14.985,2.429,22.898,3.465c0.44,0.058,0.878,0.085,1.311,0.085c4.945,0,9.244-3.667,9.903-8.703
				c0.717-5.476-3.142-10.497-8.618-11.213c-9.931-1.3-19.42-2.799-28.327-4.465c-1.07-10.547-1.62-21.249-1.62-31.914
				c0-10.665,0.55-21.367,1.62-31.914c14.237-2.668,29.78-4.873,46.339-6.56c5.494-0.56,9.495-5.468,8.935-10.962
				s-5.462-9.487-10.962-8.935c-14.628,1.49-28.515,3.378-41.479,5.625c3.346-19.476,8.522-37.957,15.454-55.135
				c17.177-6.931,35.657-12.108,55.134-15.453c-1.162,6.706-2.231,13.663-3.193,20.825c-0.735,5.474,3.106,10.507,8.581,11.242
				c0.452,0.061,0.899,0.09,1.343,0.09c4.931,0,9.224-3.648,9.898-8.67c1.231-9.17,2.641-17.987,4.201-26.317
				c21.08-2.134,42.75-2.134,63.83,0c1.851,9.884,3.49,20.436,4.877,31.494c0.635,5.058,4.942,8.756,9.91,8.756
				c0.415,0,0.835-0.026,1.258-0.079c5.48-0.688,9.365-5.688,8.677-11.167c-1.137-9.064-2.439-17.817-3.886-26.171
				c19.473,3.345,37.95,8.521,55.125,15.45c4.451,11.042,8.227,22.763,11.231,34.914c1.126,4.556,5.209,7.603,9.7,7.603
				c0.794,0,1.602-0.096,2.408-0.294c5.361-1.326,8.633-6.746,7.308-12.108c-1.502-6.074-3.194-12.048-5.047-17.906
				c30.652,17.119,52.242,39.471,62.244,64.124c-3.98-2.052-8.407-4.023-13.282-5.909c-5.152-1.994-10.941,0.567-12.935,5.717
				c-1.993,5.151,0.567,10.942,5.717,12.935c21.155,8.186,26.8,15.674,26.8,18.808c0,5.523,4.477,10,10,10s10-4.477,10-10
				c0-59.303-23.094-115.057-65.028-156.991C337.076,24.105,281.322,1.012,222.019,1.012c-59.303,0-115.057,23.093-156.991,65.028
				C23.094,107.973,0,163.727,0,223.03c0,59.304,23.094,115.058,65.028,156.991c41.934,41.934,97.688,65.028,156.991,65.028
				c5.523,0,10-4.477,10-10S227.542,425.049,222.019,425.049z M406.272,140.213c-15.942-15.739-36.569-29.465-61.122-40.313
				c-10.848-24.553-24.574-45.18-40.313-61.122C349.763,59.051,385.998,95.286,406.272,140.213z M317.682,89.533
				c-14.987-4.744-30.716-8.334-47.033-10.74c-4.805-21.63-10.467-38.794-16.957-51.429
				C278.291,37.386,300.593,58.944,317.682,89.533z M222.02,21.012c4.186,0,16.605,10.357,27.542,55.37
				c-18.254-1.49-36.832-1.49-55.084,0C205.414,31.369,217.834,21.012,222.02,21.012z M190.346,27.364
				c-6.49,12.636-12.152,29.8-16.957,51.429c-16.317,2.405-32.046,5.996-47.033,10.74C143.446,58.944,165.747,37.386,190.346,27.364
				z M139.201,38.778C123.462,54.72,109.736,75.347,98.888,99.9c-24.553,10.848-45.18,24.574-61.122,40.313
				C58.04,95.286,94.275,59.051,139.201,38.778z M88.521,127.369c-4.744,14.986-8.334,30.715-10.74,47.032
				c-21.63,4.805-38.794,10.466-51.429,16.957C36.374,166.759,57.932,144.458,88.521,127.369z M20,223.03
				c0-4.186,10.356-16.605,55.367-27.541c-0.749,9.136-1.135,18.352-1.135,27.541c0,9.189,0.386,18.405,1.135,27.541
				C30.356,239.635,20,227.216,20,223.03z M77.781,271.66c2.405,16.317,5.996,32.046,10.74,47.033
				c-30.589-17.089-52.147-39.391-62.169-63.99C38.988,261.193,56.152,266.855,77.781,271.66z M37.766,305.848
				c15.942,15.739,36.569,29.464,61.122,40.313c10.848,24.553,24.574,45.18,40.313,61.122
				C94.275,387.009,58.04,350.774,37.766,305.848z"/>
			<path d="M162.674,151.488c-0.43,4.929-0.82,9.983-1.159,15.022c-0.371,5.51,3.796,10.278,9.307,10.648
				c0.229,0.015,0.456,0.023,0.681,0.023c5.217,0,9.612-4.047,9.967-9.33c0.33-4.907,0.709-9.828,1.128-14.625
				c0.48-5.502-3.591-10.351-9.093-10.831C168.014,141.916,163.154,145.986,162.674,151.488z"/>
			<path d="M494.091,454.879L392.963,353.751c-7.441-7.442-9.634-18.588-5.586-28.396c6.36-15.412,9.45-31.753,9.183-48.569
				c-0.514-32.389-13.437-62.66-36.388-85.238c-22.947-22.574-53.426-35.005-85.822-35.005c-32.239,0-62.657,12.441-85.651,35.031
				c-22.964,22.56-35.945,52.693-36.552,84.848c-0.622,32.972,11.831,64.172,35.063,87.854
				c23.219,23.668,54.153,36.708,87.104,36.718c0.013,0,0.025,0,0.039,0c18.435,0,36.159-4.007,52.678-11.909
				c10.07-4.817,22.056-2.833,29.826,4.938l99.046,99.045c5.1,5.1,11.881,7.908,19.094,7.908c7.213,0,13.994-2.809,19.095-7.909
				C504.619,482.54,504.619,465.408,494.091,454.879z M479.95,478.926c-1.323,1.323-3.083,2.052-4.954,2.052
				c-1.871,0-3.63-0.729-4.953-2.051l-99.044-99.045c-8.774-8.773-20.55-13.396-32.524-13.396c-6.799,0-13.663,1.491-20.075,4.558
				c-13.803,6.604-28.622,9.951-44.047,9.951c-0.01,0-0.022,0-0.033,0c-27.538-0.008-53.404-10.919-72.833-30.724
				c-19.443-19.818-29.864-45.911-29.344-73.471c1.043-55.281,46.893-100.256,102.207-100.256
				c56.42,0,101.317,44.171,102.213,100.561c0.223,14.077-2.358,27.744-7.673,40.622c-7.141,17.301-3.243,36.993,9.931,50.168
				l101.128,101.126C482.68,471.752,482.68,476.196,479.95,478.926z"/>
			<path d="M274.35,191.231c-48.269,0-87.538,39.27-87.538,87.538s39.27,87.538,87.538,87.538c48.268,0,87.538-39.269,87.538-87.538
				S322.619,191.231,274.35,191.231z M274.35,346.307c-37.241,0-67.538-30.297-67.538-67.538c0-37.241,30.297-67.538,67.538-67.538
				c37.24,0,67.538,30.297,67.538,67.538C341.888,316.009,311.59,346.307,274.35,346.307z"/>
		</g>
	</g>
</g>
<g>
</g>
<g>
</g>
<g>
</g>
<g>
</g>
<g>
</g>
<g>
</g>
<g>
</g>
<g>
</g>
<g>
</g>
<g>
</g>
<g>
</g>
<g>
</g>
<g>
</g>
<g>
</g>
<g>
</g>
</svg>
