<?xml version="1.0" encoding="UTF-8"?>
<svg width="321px" height="26px" viewBox="0 0 321 26" version="1.1" xmlns="http://www.w3.org/2000/svg" xmlns:xlink="http://www.w3.org/1999/xlink">
    <!-- Generator: Sketch 44.1 (41455) - http://www.bohemiancoding.com/sketch -->
    <title>logo-text</title>
    <desc>Created with Sketch.</desc>
    <defs></defs>
    <g id="Loading" stroke="none" stroke-width="1" fill="none" fill-rule="evenodd">
        <g id="loading" transform="translate(-563.000000, -469.000000)" fill="#FFFFFF">
            <g id="logo-text" transform="translate(563.000000, 464.000000)">
                <path d="M314,9.48464912 C314,9.00365257 314.092104,8.55080622 314.276316,8.12609649 C314.460527,7.70138677 314.711256,7.3329694 315.028509,7.02083333 C315.345762,6.70869727 315.716738,6.46052724 316.141447,6.27631579 C316.566157,6.09210434 317.019003,6 317.5,6 C317.980997,6 318.433843,6.09210434 318.858553,6.27631579 C319.283262,6.46052724 319.654238,6.70869727 319.971491,7.02083333 C320.288744,7.3329694 320.539473,7.70138677 320.723684,8.12609649 C320.907896,8.55080622 321,9.00365257 321,9.48464912 C321,9.96564568 320.907896,10.4159336 320.723684,10.8355263 C320.539473,11.2551191 320.288744,11.620978 319.971491,11.933114 C319.654238,12.2452501 319.283262,12.4908617 318.858553,12.6699561 C318.433843,12.8490506 317.980997,12.9385965 317.5,12.9385965 C317.019003,12.9385965 316.566157,12.8490506 316.141447,12.6699561 C315.716738,12.4908617 315.345762,12.2452501 315.028509,11.933114 C314.711256,11.620978 314.460527,11.2551191 314.276316,10.8355263 C314.092104,10.4159336 314,9.96564568 314,9.48464912 Z M314.552632,9.48464912 C314.552632,9.88377393 314.629385,10.2624251 314.782895,10.620614 C314.936404,10.978803 315.146198,11.2934928 315.412281,11.564693 C315.678364,11.8358932 315.990495,12.0482448 316.348684,12.2017544 C316.706873,12.3552639 317.090641,12.4320175 317.5,12.4320175 C317.909359,12.4320175 318.293127,12.3552639 318.651316,12.2017544 C319.009505,12.0482448 319.321636,11.8358932 319.587719,11.564693 C319.853803,11.2934928 320.063596,10.978803 320.217105,10.620614 C320.370615,10.2624251 320.447368,9.88377393 320.447368,9.48464912 C320.447368,9.07529035 320.370615,8.69152226 320.217105,8.33333333 C320.063596,7.97514441 319.853803,7.66301303 319.587719,7.39692982 C319.321636,7.13084662 319.009505,6.9210534 318.651316,6.76754386 C318.293127,6.61403432 317.909359,6.5372807 317.5,6.5372807 C317.090641,6.5372807 316.706873,6.61403432 316.348684,6.76754386 C315.990495,6.9210534 315.678364,7.13084662 315.412281,7.39692982 C315.146198,7.66301303 314.936404,7.97514441 314.782895,8.33333333 C314.629385,8.69152226 314.552632,9.07529035 314.552632,9.48464912 Z M316.133772,7.50438596 L317.515351,7.50438596 C317.699562,7.50438596 317.878654,7.5248536 318.052632,7.56578947 C318.226609,7.60672535 318.382675,7.67324515 318.520833,7.76535088 C318.658992,7.8574566 318.769005,7.97514548 318.850877,8.11842105 C318.932749,8.26169662 318.973684,8.4407884 318.973684,8.65570175 C318.973684,8.94225289 318.891814,9.1750722 318.72807,9.35416667 C318.564327,9.53326113 318.3443,9.65350846 318.067982,9.71491228 L319.127193,11.4342105 L318.267544,11.4342105 L317.346491,9.79166667 L316.839912,9.79166667 L316.839912,11.4342105 L316.133772,11.4342105 L316.133772,7.50438596 Z M317.407895,9.22368421 C317.612574,9.22368421 317.807017,9.1853074 317.991228,9.10855263 C318.17544,9.03179786 318.267544,8.87573217 318.267544,8.64035088 C318.267544,8.42543752 318.183115,8.2821641 318.014254,8.21052632 C317.845394,8.13888853 317.668861,8.10307018 317.484649,8.10307018 L316.839912,8.10307018 L316.839912,9.22368421 L317.407895,9.22368421 Z" id="®"></path>
                <path d="M6.625,22.525 L6.675,22.525 L11.1,7.3 L13.25,7.3 L17.675,22.525 L17.725,22.525 L22.05,7.3 L23.95,7.3 L18.725,25 L16.625,25 L12.175,9.8 L12.125,9.8 L7.675,25 L5.575,25 L0.35,7.3 L2.25,7.3 L6.625,22.525 Z M34.575,18.25 C34.5249997,17.1499945 34.1708366,16.2375036 33.5125,15.5125 C32.8541634,14.7874964 31.9166728,14.425 30.7,14.425 C30.1333305,14.425 29.6083358,14.5291656 29.125,14.7375 C28.6416643,14.9458344 28.2166685,15.2291649 27.85,15.5875 C27.4833315,15.9458351 27.1916678,16.3541644 26.975,16.8125 C26.7583323,17.2708356 26.6333335,17.7499975 26.6,18.25 L34.575,18.25 Z M36.3,18.8 L36.3,19.175 C36.3,19.308334 36.2916668,19.4499993 36.275,19.6 L26.575,19.6 C26.5916668,20.1833362 26.7083323,20.7333308 26.925,21.25 C27.1416678,21.7666692 27.4416648,22.2166647 27.825,22.6 C28.2083353,22.9833352 28.6583308,23.2874989 29.175,23.5125 C29.6916693,23.7375011 30.249997,23.85 30.85,23.85 C31.7333378,23.85 32.4958301,23.6458354 33.1375,23.2375 C33.7791699,22.8291646 34.266665,22.358336 34.6,21.825 L35.875,22.825 C35.1749965,23.7083377 34.4041709,24.3416647 33.5625,24.725 C32.7208291,25.1083352 31.8166715,25.3 30.85,25.3 C29.983329,25.3 29.1791704,25.1458349 28.4375,24.8375 C27.6958296,24.5291651 27.058336,24.1000028 26.525,23.55 C25.991664,22.9999972 25.5708349,22.3500037 25.2625,21.6 C24.9541651,20.8499963 24.8,20.0333377 24.8,19.15 C24.8,18.2666622 24.9499985,17.4500038 25.25,16.7 C25.5500015,15.9499962 25.966664,15.3000028 26.5,14.75 C27.033336,14.1999972 27.6583298,13.7708349 28.375,13.4625 C29.0916703,13.1541651 29.8666625,13 30.7,13 C31.6166713,13 32.4249965,13.1541651 33.125,13.4625 C33.8250035,13.7708349 34.408331,14.1874974 34.875,14.7125 C35.341669,15.2375026 35.6958321,15.8499965 35.9375,16.55 C36.1791679,17.2500035 36.3,17.999996 36.3,18.8 Z M41.7,23.025 L41.7,25 L40,25 L40,6.1 L41.7,6.1 L41.7,15.325 L41.75,15.325 C42.2500025,14.5583295 42.899996,13.9791686 43.7,13.5875 C44.500004,13.1958314 45.3249958,13 46.175,13 C47.0916713,13 47.9208296,13.1583318 48.6625,13.475 C49.4041704,13.7916683 50.0374974,14.2249972 50.5625,14.775 C51.0875026,15.3250027 51.4958319,15.9749963 51.7875,16.725 C52.0791681,17.4750038 52.225,18.283329 52.225,19.15 C52.225,20.016671 52.0791681,20.8249962 51.7875,21.575 C51.4958319,22.3250038 51.0875026,22.9749973 50.5625,23.525 C50.0374974,24.0750027 49.4041704,24.5083317 48.6625,24.825 C47.9208296,25.1416683 47.0916713,25.3 46.175,25.3 C45.3249958,25.3 44.500004,25.1083352 43.7,24.725 C42.899996,24.3416647 42.2500025,23.7750037 41.75,23.025 L41.7,23.025 Z M50.425,19.15 C50.425,18.4999968 50.325001,17.8875029 50.125,17.3125 C49.924999,16.7374971 49.6375019,16.2375021 49.2625,15.8125 C48.8874981,15.3874979 48.4250027,15.0500012 47.875,14.8 C47.3249972,14.5499987 46.7000035,14.425 46,14.425 C45.3499967,14.425 44.7500028,14.5458321 44.2,14.7875 C43.6499972,15.0291679 43.175002,15.3624979 42.775,15.7875 C42.374998,16.2125021 42.0625011,16.7124971 41.8375,17.2875 C41.6124989,17.8625029 41.5,18.48333 41.5,19.15 C41.5,19.81667 41.6124989,20.4374971 41.8375,21.0125 C42.0625011,21.5875029 42.374998,22.0833313 42.775,22.5 C43.175002,22.9166687 43.6499972,23.2458321 44.2,23.4875 C44.7500028,23.7291679 45.3499967,23.85 46,23.85 C46.7000035,23.85 47.3249972,23.7291679 47.875,23.4875 C48.4250027,23.2458321 48.8874981,22.9125021 49.2625,22.4875 C49.6375019,22.0624979 49.924999,21.5625029 50.125,20.9875 C50.325001,20.4124971 50.425,19.8000033 50.425,19.15 Z M61.65,25 L59.675,25 L67.325,7.3 L69.075,7.3 L76.675,25 L74.675,25 L72.725,20.35 L63.575,20.35 L61.65,25 Z M64.25,18.7 L72.05,18.7 L68.15,9.3 L64.25,18.7 Z M80.875,31 L79.175,31 L79.175,13.3 L80.875,13.3 L80.875,15.325 L80.95,15.325 C81.4333357,14.5583295 82.0791626,13.9791686 82.8875,13.5875 C83.6958374,13.1958314 84.5166625,13 85.35,13 C86.2666712,13 87.0958296,13.1583318 87.8375,13.475 C88.5791704,13.7916683 89.2124974,14.2249972 89.7375,14.775 C90.2625026,15.3250027 90.6708319,15.9749963 90.9625,16.725 C91.2541681,17.4750038 91.4,18.283329 91.4,19.15 C91.4,20.016671 91.2541681,20.8249962 90.9625,21.575 C90.6708319,22.3250038 90.2625026,22.9749973 89.7375,23.525 C89.2124974,24.0750027 88.5791704,24.5083317 87.8375,24.825 C87.0958296,25.1416683 86.2666712,25.3 85.35,25.3 C84.5166625,25.3 83.6958374,25.1041686 82.8875,24.7125 C82.0791626,24.3208314 81.4333357,23.758337 80.95,23.025 L80.875,23.025 L80.875,31 Z M89.6,19.15 C89.6,18.4999968 89.500001,17.8875029 89.3,17.3125 C89.099999,16.7374971 88.8125019,16.2375021 88.4375,15.8125 C88.0624981,15.3874979 87.6000027,15.0500012 87.05,14.8 C86.4999972,14.5499987 85.8750035,14.425 85.175,14.425 C84.5249967,14.425 83.9250027,14.5458321 83.375,14.7875 C82.8249972,15.0291679 82.350002,15.3624979 81.95,15.7875 C81.549998,16.2125021 81.2375011,16.7124971 81.0125,17.2875 C80.7874989,17.8625029 80.675,18.48333 80.675,19.15 C80.675,19.81667 80.7874989,20.4374971 81.0125,21.0125 C81.2375011,21.5875029 81.549998,22.0833313 81.95,22.5 C82.350002,22.9166687 82.8249972,23.2458321 83.375,23.4875 C83.9250027,23.7291679 84.5249967,23.85 85.175,23.85 C85.8750035,23.85 86.4999972,23.7291679 87.05,23.4875 C87.6000027,23.2458321 88.0624981,22.9125021 88.4375,22.4875 C88.8125019,22.0624979 89.099999,21.5625029 89.3,20.9875 C89.500001,20.4124971 89.6,19.8000033 89.6,19.15 Z M96.75,31 L95.05,31 L95.05,13.3 L96.75,13.3 L96.75,15.325 L96.825,15.325 C97.3083357,14.5583295 97.9541626,13.9791686 98.7625,13.5875 C99.5708374,13.1958314 100.391662,13 101.225,13 C102.141671,13 102.97083,13.1583318 103.7125,13.475 C104.45417,13.7916683 105.087497,14.2249972 105.6125,14.775 C106.137503,15.3250027 106.545832,15.9749963 106.8375,16.725 C107.129168,17.4750038 107.275,18.283329 107.275,19.15 C107.275,20.016671 107.129168,20.8249962 106.8375,21.575 C106.545832,22.3250038 106.137503,22.9749973 105.6125,23.525 C105.087497,24.0750027 104.45417,24.5083317 103.7125,24.825 C102.97083,25.1416683 102.141671,25.3 101.225,25.3 C100.391662,25.3 99.5708374,25.1041686 98.7625,24.7125 C97.9541626,24.3208314 97.3083357,23.758337 96.825,23.025 L96.75,23.025 L96.75,31 Z M105.475,19.15 C105.475,18.4999968 105.375001,17.8875029 105.175,17.3125 C104.974999,16.7374971 104.687502,16.2375021 104.3125,15.8125 C103.937498,15.3874979 103.475003,15.0500012 102.925,14.8 C102.374997,14.5499987 101.750003,14.425 101.05,14.425 C100.399997,14.425 99.8000027,14.5458321 99.25,14.7875 C98.6999972,15.0291679 98.225002,15.3624979 97.825,15.7875 C97.424998,16.2125021 97.1125011,16.7124971 96.8875,17.2875 C96.6624989,17.8625029 96.55,18.48333 96.55,19.15 C96.55,19.81667 96.6624989,20.4374971 96.8875,21.0125 C97.1125011,21.5875029 97.424998,22.0833313 97.825,22.5 C98.225002,22.9166687 98.6999972,23.2458321 99.25,23.4875 C99.8000027,23.7291679 100.399997,23.85 101.05,23.85 C101.750003,23.85 102.374997,23.7291679 102.925,23.4875 C103.475003,23.2458321 103.937498,22.9125021 104.3125,22.4875 C104.687502,22.0624979 104.974999,21.5625029 105.175,20.9875 C105.375001,20.4124971 105.475,19.8000033 105.475,19.15 Z M111.025,7.3 L116.3,7.3 C116.96667,7.3 117.641663,7.37083262 118.325,7.5125 C119.008337,7.65416738 119.620831,7.89583162 120.1625,8.2375 C120.704169,8.57916838 121.145832,9.04166375 121.4875,9.625 C121.829168,10.2083363 122,10.9416623 122,11.825 C122,12.758338 121.716669,13.5708299 121.15,14.2625 C120.58333,14.9541701 119.825005,15.4083323 118.875,15.625 L118.875,15.675 C120.025006,15.808334 120.979163,16.2541629 121.7375,17.0125 C122.495837,17.7708371 122.875,18.7999935 122.875,20.1 C122.875,20.833337 122.720835,21.5041636 122.4125,22.1125 C122.104165,22.7208364 121.666669,23.2374979 121.1,23.6625 C120.53333,24.0875021 119.841671,24.4166655 119.025,24.65 C118.208329,24.8833345 117.291672,25 116.275,25 L111.025,25 L111.025,7.3 Z M112.825,15.05 L116.45,15.05 C116.883335,15.05 117.320831,15.0000005 117.7625,14.9 C118.204169,14.7999995 118.608331,14.6291679 118.975,14.3875 C119.341668,14.1458321 119.637499,13.825002 119.8625,13.425 C120.087501,13.024998 120.2,12.5333362 120.2,11.95 C120.2,11.3833305 120.087501,10.9041686 119.8625,10.5125 C119.637499,10.1208314 119.333335,9.80000125 118.95,9.55 C118.566665,9.29999875 118.116669,9.12083387 117.6,9.0125 C117.083331,8.90416612 116.533336,8.85 115.95,8.85 L112.825,8.85 L112.825,15.05 Z M112.825,23.45 L116.175,23.45 C116.825003,23.45 117.44583,23.3875006 118.0375,23.2625 C118.62917,23.1374994 119.145831,22.9375014 119.5875,22.6625 C120.029169,22.3874986 120.383332,22.0291689 120.65,21.5875 C120.916668,21.1458311 121.05,20.6166697 121.05,20 C121.05,18.8333275 120.654171,17.9625029 119.8625,17.3875 C119.070829,16.8124971 117.950007,16.525 116.5,16.525 L112.825,16.525 L112.825,23.45 Z M135.325,25 C135.291666,24.6833318 135.266667,24.3333353 135.25,23.95 C135.233333,23.5666648 135.225,23.2500013 135.225,23 L135.175,23 C134.841665,23.6833368 134.300004,24.2374979 133.55,24.6625 C132.799996,25.0875021 132.008337,25.3 131.175,25.3 C129.691659,25.3 128.57917,24.8583378 127.8375,23.975 C127.09583,23.0916622 126.725,21.9250073 126.725,20.475 L126.725,13.3 L128.425,13.3 L128.425,19.775 C128.425,20.3916698 128.474999,20.9499975 128.575,21.45 C128.675,21.9500025 128.845832,22.3791649 129.0875,22.7375 C129.329168,23.0958351 129.654165,23.374999 130.0625,23.575 C130.470835,23.775001 130.98333,23.875 131.6,23.875 C132.050002,23.875 132.487498,23.7833343 132.9125,23.6 C133.337502,23.4166658 133.716665,23.1375019 134.05,22.7625 C134.383335,22.3874981 134.649999,21.9125029 134.85,21.3375 C135.050001,20.7624971 135.15,20.0833372 135.15,19.3 L135.15,13.3 L136.85,13.3 L136.85,22.425 C136.85,22.7416683 136.858333,23.1499975 136.875,23.65 C136.891667,24.1500025 136.916666,24.599998 136.95,25 L135.325,25 Z M143.075,25 L141.375,25 L141.375,13.3 L143.075,13.3 L143.075,25 Z M143.425,8.8 C143.425,9.15000175 143.300001,9.43749887 143.05,9.6625 C142.799999,9.88750113 142.525001,10 142.225,10 C141.924998,10 141.650001,9.88750113 141.4,9.6625 C141.149999,9.43749887 141.025,9.15000175 141.025,8.8 C141.025,8.44999825 141.149999,8.16250112 141.4,7.9375 C141.650001,7.71249888 141.924998,7.6 142.225,7.6 C142.525001,7.6 142.799999,7.71249888 143.05,7.9375 C143.300001,8.16250112 143.425,8.44999825 143.425,8.8 Z M149.35,25 L147.65,25 L147.65,6.1 L149.35,6.1 L149.35,25 Z M163.525,23.025 C163.024997,23.7750037 162.375004,24.3416647 161.575,24.725 C160.774996,25.1083352 159.950004,25.3 159.1,25.3 C158.183329,25.3 157.35417,25.1416683 156.6125,24.825 C155.87083,24.5083317 155.237503,24.0750027 154.7125,23.525 C154.187497,22.9749973 153.779168,22.3250038 153.4875,21.575 C153.195832,20.8249962 153.05,20.016671 153.05,19.15 C153.05,18.283329 153.195832,17.4750038 153.4875,16.725 C153.779168,15.9749963 154.187497,15.3250027 154.7125,14.775 C155.237503,14.2249972 155.87083,13.7916683 156.6125,13.475 C157.35417,13.1583318 158.183329,13 159.1,13 C159.950004,13 160.774996,13.1958314 161.575,13.5875 C162.375004,13.9791686 163.024997,14.5583295 163.525,15.325 L163.575,15.325 L163.575,6.1 L165.275,6.1 L165.275,25 L163.575,25 L163.575,23.025 L163.525,23.025 Z M154.85,19.15 C154.85,19.8000033 154.949999,20.4124971 155.15,20.9875 C155.350001,21.5625029 155.637498,22.0624979 156.0125,22.4875 C156.387502,22.9125021 156.849997,23.2458321 157.4,23.4875 C157.950003,23.7291679 158.574996,23.85 159.275,23.85 C159.925003,23.85 160.524997,23.7291679 161.075,23.4875 C161.625003,23.2458321 162.099998,22.9166687 162.5,22.5 C162.900002,22.0833313 163.212499,21.5875029 163.4375,21.0125 C163.662501,20.4374971 163.775,19.81667 163.775,19.15 C163.775,18.48333 163.662501,17.8625029 163.4375,17.2875 C163.212499,16.7124971 162.900002,16.2125021 162.5,15.7875 C162.099998,15.3624979 161.625003,15.0291679 161.075,14.7875 C160.524997,14.5458321 159.925003,14.425 159.275,14.425 C158.574996,14.425 157.950003,14.5499987 157.4,14.8 C156.849997,15.0500012 156.387502,15.3874979 156.0125,15.8125 C155.637498,16.2375021 155.350001,16.7374971 155.15,17.3125 C154.949999,17.8875029 154.85,18.4999968 154.85,19.15 Z M178.75,18.25 C178.7,17.1499945 178.345837,16.2375036 177.6875,15.5125 C177.029163,14.7874964 176.091673,14.425 174.875,14.425 C174.308331,14.425 173.783336,14.5291656 173.3,14.7375 C172.816664,14.9458344 172.391669,15.2291649 172.025,15.5875 C171.658332,15.9458351 171.366668,16.3541644 171.15,16.8125 C170.933332,17.2708356 170.808334,17.7499975 170.775,18.25 L178.75,18.25 Z M180.475,18.8 L180.475,19.175 C180.475,19.308334 180.466667,19.4499993 180.45,19.6 L170.75,19.6 C170.766667,20.1833362 170.883332,20.7333308 171.1,21.25 C171.316668,21.7666692 171.616665,22.2166647 172,22.6 C172.383335,22.9833352 172.833331,23.2874989 173.35,23.5125 C173.866669,23.7375011 174.424997,23.85 175.025,23.85 C175.908338,23.85 176.67083,23.6458354 177.3125,23.2375 C177.95417,22.8291646 178.441665,22.358336 178.775,21.825 L180.05,22.825 C179.349997,23.7083377 178.579171,24.3416647 177.7375,24.725 C176.895829,25.1083352 175.991671,25.3 175.025,25.3 C174.158329,25.3 173.35417,25.1458349 172.6125,24.8375 C171.87083,24.5291651 171.233336,24.1000028 170.7,23.55 C170.166664,22.9999972 169.745835,22.3500037 169.4375,21.6 C169.129165,20.8499963 168.975,20.0333377 168.975,19.15 C168.975,18.2666622 169.124999,17.4500038 169.425,16.7 C169.725001,15.9499962 170.141664,15.3000028 170.675,14.75 C171.208336,14.1999972 171.83333,13.7708349 172.55,13.4625 C173.26667,13.1541651 174.041663,13 174.875,13 C175.791671,13 176.599997,13.1541651 177.3,13.4625 C178.000003,13.7708349 178.583331,14.1874974 179.05,14.7125 C179.516669,15.2375026 179.870832,15.8499965 180.1125,16.55 C180.354168,17.2500035 180.475,17.999996 180.475,18.8 Z M184.125,15.875 C184.125,15.5583318 184.116667,15.1500025 184.1,14.65 C184.083333,14.1499975 184.058333,13.700002 184.025,13.3 L185.65,13.3 C185.683334,13.6166682 185.708333,13.9666647 185.725,14.35 C185.741667,14.7333352 185.75,15.0499987 185.75,15.3 L185.8,15.3 C186.133335,14.6166632 186.63333,14.0625021 187.3,13.6375 C187.96667,13.2124979 188.716663,13 189.55,13 C189.766668,13 189.962499,13.0083332 190.1375,13.025 C190.312501,13.0416667 190.491666,13.0749997 190.675,13.125 L190.45,14.725 C190.349999,14.6916665 190.183335,14.6583335 189.95,14.625 C189.716666,14.5916665 189.483334,14.575 189.25,14.575 C188.799998,14.575 188.366669,14.6583325 187.95,14.825 C187.533331,14.9916675 187.170835,15.2541649 186.8625,15.6125 C186.554165,15.9708351 186.304168,16.4291639 186.1125,16.9875 C185.920832,17.5458361 185.825,18.2166627 185.825,19 L185.825,25 L184.125,25 L184.125,15.875 Z M204.325,14.725 L201.575,14.725 L201.575,25 L199.875,25 L199.875,14.725 L197.425,14.725 L197.425,13.3 L199.875,13.3 L199.875,10.1 C199.875,8.76666 200.199997,7.7166705 200.85,6.95 C201.500003,6.1833295 202.499993,5.8 203.85,5.8 C204.066668,5.8 204.299999,5.81249988 204.55,5.8375 C204.800001,5.86250012 205.033332,5.908333 205.25,5.975 L204.95,7.475 C204.766666,7.42499975 204.583334,7.3833335 204.4,7.35 C204.216666,7.3166665 204.008335,7.3 203.775,7.3 C203.324998,7.3 202.954168,7.37499925 202.6625,7.525 C202.370832,7.67500075 202.145834,7.88749862 201.9875,8.1625 C201.829166,8.43750138 201.720834,8.7583315 201.6625,9.125 C201.604166,9.4916685 201.575,9.88333125 201.575,10.3 L201.575,13.3 L204.325,13.3 L204.325,14.725 Z M218.375,19.15 C218.375,20.0333377 218.220835,20.8499963 217.9125,21.6 C217.604165,22.3500037 217.175003,22.9999972 216.625,23.55 C216.074997,24.1000028 215.41667,24.5291651 214.65,24.8375 C213.883329,25.1458349 213.041671,25.3 212.125,25.3 C211.224996,25.3 210.391671,25.1458349 209.625,24.8375 C208.858329,24.5291651 208.200003,24.1000028 207.65,23.55 C207.099997,22.9999972 206.670835,22.3500037 206.3625,21.6 C206.054165,20.8499963 205.9,20.0333377 205.9,19.15 C205.9,18.2666622 206.054165,17.4500038 206.3625,16.7 C206.670835,15.9499962 207.099997,15.3000028 207.65,14.75 C208.200003,14.1999972 208.858329,13.7708349 209.625,13.4625 C210.391671,13.1541651 211.224996,13 212.125,13 C213.041671,13 213.883329,13.1541651 214.65,13.4625 C215.41667,13.7708349 216.074997,14.1999972 216.625,14.75 C217.175003,15.3000028 217.604165,15.9499962 217.9125,16.7 C218.220835,17.4500038 218.375,18.2666622 218.375,19.15 Z M216.575,19.15 C216.575,18.4999968 216.470834,17.8875029 216.2625,17.3125 C216.054166,16.7374971 215.758335,16.2375021 215.375,15.8125 C214.991665,15.3874979 214.525003,15.0500012 213.975,14.8 C213.424997,14.5499987 212.808337,14.425 212.125,14.425 C211.441663,14.425 210.829169,14.5499987 210.2875,14.8 C209.745831,15.0500012 209.283335,15.3874979 208.9,15.8125 C208.516665,16.2375021 208.220834,16.7374971 208.0125,17.3125 C207.804166,17.8875029 207.7,18.4999968 207.7,19.15 C207.7,19.8000033 207.804166,20.4124971 208.0125,20.9875 C208.220834,21.5625029 208.516665,22.0624979 208.9,22.4875 C209.283335,22.9125021 209.745831,23.2458321 210.2875,23.4875 C210.829169,23.7291679 211.441663,23.85 212.125,23.85 C212.808337,23.85 213.424997,23.7291679 213.975,23.4875 C214.525003,23.2458321 214.991665,22.9125021 215.375,22.4875 C215.758335,22.0624979 216.054166,21.5625029 216.2625,20.9875 C216.470834,20.4124971 216.575,19.8000033 216.575,19.15 Z M222.025,15.875 C222.025,15.5583318 222.016667,15.1500025 222,14.65 C221.983333,14.1499975 221.958333,13.700002 221.925,13.3 L223.55,13.3 C223.583333,13.6166682 223.608333,13.9666647 223.625,14.35 C223.641667,14.7333352 223.65,15.0499987 223.65,15.3 L223.7,15.3 C224.033335,14.6166632 224.53333,14.0625021 225.2,13.6375 C225.86667,13.2124979 226.616663,13 227.45,13 C227.666668,13 227.862499,13.0083332 228.0375,13.025 C228.212501,13.0416667 228.391666,13.0749997 228.575,13.125 L228.35,14.725 C228.25,14.6916665 228.083334,14.6583335 227.85,14.625 C227.616665,14.5916665 227.383334,14.575 227.15,14.575 C226.699998,14.575 226.266669,14.6583325 225.85,14.825 C225.433331,14.9916675 225.070835,15.2541649 224.7625,15.6125 C224.454165,15.9708351 224.204168,16.4291639 224.0125,16.9875 C223.820832,17.5458361 223.725,18.2166627 223.725,19 L223.725,25 L222.025,25 L222.025,15.875 Z M236.8,25 L234.825,25 L242.475,7.3 L244.225,7.3 L251.825,25 L249.825,25 L247.875,20.35 L238.725,20.35 L236.8,25 Z M239.4,18.7 L247.2,18.7 L243.3,9.3 L239.4,18.7 Z M254.325,15.875 C254.325,15.5583318 254.316667,15.1500025 254.3,14.65 C254.283333,14.1499975 254.258334,13.700002 254.225,13.3 L255.85,13.3 C255.883334,13.6166682 255.908333,13.9666647 255.925,14.35 C255.941667,14.7333352 255.95,15.0499987 255.95,15.3 L256,15.3 C256.333335,14.6166632 256.83333,14.0625021 257.5,13.6375 C258.16667,13.2124979 258.916663,13 259.75,13 C259.966668,13 260.162499,13.0083332 260.3375,13.025 C260.512501,13.0416667 260.691666,13.0749997 260.875,13.125 L260.65,14.725 C260.55,14.6916665 260.383335,14.6583335 260.15,14.625 C259.916666,14.5916665 259.683335,14.575 259.45,14.575 C258.999998,14.575 258.566669,14.6583325 258.15,14.825 C257.733331,14.9916675 257.370835,15.2541649 257.0625,15.6125 C256.754165,15.9708351 256.504168,16.4291639 256.3125,16.9875 C256.120832,17.5458361 256.025,18.2166627 256.025,19 L256.025,25 L254.325,25 L254.325,15.875 Z M271.3,15.975 C271.016665,15.5249977 270.604169,15.1541681 270.0625,14.8625 C269.520831,14.5708319 268.933337,14.425 268.3,14.425 C267.616663,14.425 267.000003,14.5458321 266.45,14.7875 C265.899997,15.0291679 265.429169,15.3624979 265.0375,15.7875 C264.645831,16.2125021 264.345834,16.7124971 264.1375,17.2875 C263.929166,17.8625029 263.825,18.48333 263.825,19.15 C263.825,19.81667 263.929166,20.4333305 264.1375,21 C264.345834,21.5666695 264.641665,22.0624979 265.025,22.4875 C265.408335,22.9125021 265.874997,23.2458321 266.425,23.4875 C266.975003,23.7291679 267.591663,23.85 268.275,23.85 C269.025004,23.85 269.658331,23.7083347 270.175,23.425 C270.691669,23.1416653 271.116665,22.7750023 271.45,22.325 L272.725,23.275 C272.224998,23.8916697 271.612504,24.3833315 270.8875,24.75 C270.162496,25.1166685 269.291672,25.3 268.275,25.3 C267.324995,25.3 266.466671,25.1458349 265.7,24.8375 C264.93333,24.5291651 264.279169,24.1000028 263.7375,23.55 C263.195831,22.9999972 262.775002,22.3500037 262.475,21.6 C262.174999,20.8499963 262.025,20.0333377 262.025,19.15 C262.025,18.2666622 262.174999,17.4500038 262.475,16.7 C262.775002,15.9499962 263.195831,15.3000028 263.7375,14.75 C264.279169,14.1999972 264.93333,13.7708349 265.7,13.4625 C266.466671,13.1541651 267.324995,13 268.275,13 C269.058337,13 269.854163,13.1708316 270.6625,13.5125 C271.470837,13.8541684 272.124998,14.35833 272.625,15.025 L271.3,15.975 Z M288.625,10.95 C288.091664,10.3666638 287.412504,9.90000175 286.5875,9.55 C285.762496,9.19999825 284.841672,9.025 283.825,9.025 C282.791661,9.025 281.858338,9.21249812 281.025,9.5875 C280.191662,9.96250188 279.483336,10.4749967 278.9,11.125 C278.316664,11.7750033 277.866668,12.5291624 277.55,13.3875 C277.233332,14.2458376 277.075,15.1583285 277.075,16.125 C277.075,17.1083383 277.233332,18.033329 277.55,18.9 C277.866668,19.766671 278.316664,20.5208301 278.9,21.1625 C279.483336,21.8041699 280.199996,22.3083315 281.05,22.675 C281.900004,23.0416685 282.849995,23.225 283.9,23.225 C284.733338,23.225 285.499996,23.1500008 286.2,23 C286.900003,22.8499992 287.508331,22.6333347 288.025,22.35 L288.025,17.425 L284.1,17.425 L284.1,15.325 L290.475,15.325 L290.475,23.9 C289.541662,24.4000025 288.525005,24.783332 287.425,25.05 C286.324995,25.316668 285.125006,25.45 283.825,25.45 C282.44166,25.45 281.170839,25.2208356 280.0125,24.7625 C278.854161,24.3041644 277.858338,23.6625041 277.025,22.8375 C276.191663,22.0124959 275.541669,21.0291724 275.075,19.8875 C274.608331,18.7458276 274.375,17.4916735 274.375,16.125 C274.375,14.7416597 274.612498,13.4791724 275.0875,12.3375 C275.562502,11.1958276 276.220829,10.2208374 277.0625,9.4125 C277.904171,8.60416263 278.899994,7.97500225 280.05,7.525 C281.200006,7.07499775 282.449993,6.85 283.8,6.85 C285.216674,6.85 286.479161,7.05833125 287.5875,7.475 C288.695839,7.89166875 289.616663,8.4499965 290.35,9.15 L288.625,10.95 Z M297.2,25 L294.725,25 L294.725,7.3 L297.2,7.3 L297.2,25 Z M310.3,10.575 C309.949998,10.0916643 309.475003,9.69583488 308.875,9.3875 C308.274997,9.07916512 307.600004,8.925 306.85,8.925 C306.449998,8.925 306.045835,8.97916612 305.6375,9.0875 C305.229165,9.19583387 304.858335,9.37083212 304.525,9.6125 C304.191665,9.85416788 303.920834,10.1541649 303.7125,10.5125 C303.504166,10.8708351 303.4,11.2999975 303.4,11.8 C303.4,12.2833357 303.495832,12.6874984 303.6875,13.0125 C303.879168,13.3375016 304.137498,13.6124989 304.4625,13.8375 C304.787502,14.0625011 305.170831,14.2541659 305.6125,14.4125 C306.054169,14.5708341 306.524997,14.7333325 307.025,14.9 C307.625003,15.0833342 308.23333,15.2916655 308.85,15.525 C309.46667,15.7583345 310.024997,16.0666648 310.525,16.45 C311.025002,16.8333352 311.433332,17.3124971 311.75,17.8875 C312.066668,18.4625029 312.225,19.1916623 312.225,20.075 C312.225,20.9916712 312.054168,21.7874966 311.7125,22.4625 C311.370832,23.1375034 310.916669,23.6958311 310.35,24.1375 C309.78333,24.5791689 309.12917,24.9083323 308.3875,25.125 C307.64583,25.3416677 306.883337,25.45 306.1,25.45 C304.983328,25.45 303.904172,25.2333355 302.8625,24.8 C301.820828,24.3666645 300.958337,23.7250043 300.275,22.875 L302.2,21.25 C302.616669,21.8666697 303.174996,22.3666647 303.875,22.75 C304.575003,23.1333353 305.333329,23.325 306.15,23.325 C306.566669,23.325 306.983331,23.2666672 307.4,23.15 C307.816669,23.0333327 308.195832,22.8500012 308.5375,22.6 C308.879168,22.3499987 309.158332,22.0375019 309.375,21.6625 C309.591668,21.2874981 309.7,20.833336 309.7,20.3 C309.7,19.766664 309.587501,19.3208351 309.3625,18.9625 C309.137499,18.6041649 308.833335,18.3000013 308.45,18.05 C308.066665,17.7999988 307.620836,17.5875009 307.1125,17.4125 C306.604164,17.2374991 306.066669,17.0583342 305.5,16.875 C304.93333,16.7083325 304.375003,16.5041679 303.825,16.2625 C303.274997,16.0208321 302.783335,15.7125019 302.35,15.3375 C301.916664,14.9624981 301.566668,14.5000028 301.3,13.95 C301.033332,13.3999972 300.9,12.7166707 300.9,11.9 C300.9,11.0166622 301.079165,10.2583365 301.4375,9.625 C301.795835,8.9916635 302.262497,8.46666875 302.8375,8.05 C303.412503,7.63333125 304.062496,7.32916763 304.7875,7.1375 C305.512504,6.94583237 306.241663,6.85 306.975,6.85 C308.008338,6.85 308.974995,7.0333315 309.875,7.4 C310.775004,7.7666685 311.499997,8.25833025 312.05,8.875 L310.3,10.575 Z" id="Web-AppBuilder-for-A-Copy"></path>
            </g>
        </g>
    </g>
</svg>